<?xml version="1.0" encoding="UTF-8"?>
<svg fill="none" stroke-linecap="square" stroke-miterlimit="10" version="1.1" viewBox="0 0 5442.5 4233.1" xmlns="http://www.w3.org/2000/svg">
<clipPath id="a">
<path d="m0 0h5442.5v4233.1h-5442.5v-4233.1z"/>
</clipPath>
<g clip-path="url(#a)">
<path d="m0 0h5442.5v4233.1h-5442.5z" fill="#000" fill-opacity="0" fill-rule="evenodd"/>
<path d="m3257.1 1254.8h1994.1v1514.5h-1994.1z" fill="#000" fill-opacity="0" fill-rule="evenodd"/>
<path d="m3257.1 1254.8h1994.1v1514.5h-1994.1z" fill-rule="evenodd" stroke="#000" stroke-dasharray="32.0,24.0,8.0,24.0" stroke-linecap="butt" stroke-linejoin="round" stroke-width="8"/>
<path d="m4604 2317.9h649.07v449.32h-649.07z" fill="#ead1dc" fill-rule="evenodd"/>
<path d="m4604 2317.9h649.07v449.32h-649.07z" fill-rule="evenodd" stroke="#000" stroke-linecap="butt" stroke-linejoin="round"/>
<path d="m4814.1 2609.5v-132.66h50.047q13.203 0 20.172 1.2656 9.7812 1.625 16.375 6.2031 6.6094 4.5625 10.641 12.797t4.0312 18.094q0 16.922-10.781 28.641-10.766 11.719-38.906 11.719h-34.016v53.938h-17.562zm17.562-69.594h34.297q17 0 24.141-6.3281 7.1562-6.3281 7.1562-17.828 0-8.3281-4.2031-14.25-4.2031-5.9375-11.078-7.8281-4.4375-1.1719-16.391-1.1719h-33.922v47.406zm106.05 69.594v-132.66h45.703q15.469 0 23.609 1.8906 11.406 2.625 19.469 9.5 10.484 8.875 15.688 22.672t5.2031 31.531q0 15.125-3.5312 26.797-3.5156 11.672-9.0469 19.328-5.5156 7.6406-12.078 12.031-6.5625 4.375-15.844 6.6406-9.2656 2.2656-21.297 2.2656h-47.875zm17.562-15.656h28.312q13.125 0 20.594-2.4375 7.4688-2.4531 11.906-6.875 6.2344-6.25 9.7188-16.781 3.4844-10.547 3.4844-25.578 0-20.812-6.8281-31.984t-16.609-14.984q-7.0625-2.7031-22.719-2.7031h-27.859v101.34z" fill="#000"/>
<path d="m4604 1877.8h649.07v449.32h-649.07z" fill="#ead1dc" fill-rule="evenodd"/>
<path d="m4604 1877.8h649.07v449.32h-649.07z" fill-rule="evenodd" stroke="#000" stroke-linecap="butt" stroke-linejoin="round"/>
<path d="m4774.1 2169.4v-117h-43.703v-15.656h105.16v15.656h-43.891v117h-17.562zm70.594-113.94v-18.719h16.281v18.719h-16.281zm0 113.94v-96.109h16.281v96.109h-16.281zm43.158 0v-132.66h45.703q15.469 0 23.609 1.8906 11.406 2.625 19.469 9.5 10.484 8.875 15.688 22.672t5.2031 31.531q0 15.125-3.5312 26.797-3.5156 11.672-9.0469 19.328-5.5156 7.6406-12.078 12.031-6.5625 4.375-15.844 6.6406-9.2656 2.2656-21.297 2.2656h-47.875zm17.562-15.656h28.312q13.125 0 20.594-2.4375 7.4688-2.4531 11.906-6.875 6.2344-6.25 9.7188-16.781 3.4844-10.547 3.4844-25.578 0-20.812-6.8281-31.984t-16.609-14.984q-7.0625-2.7031-22.719-2.7031h-27.859v101.34zm115.56 15.656v-132.66h49.766q15.203 0 24.391 4.0312 9.1875 4.0156 14.391 12.391t5.2031 17.5q0 8.5156-4.625 16.031-4.6094 7.5-13.938 12.125 12.047 3.5156 18.516 12.031 6.4688 8.5 6.4688 20.094 0 9.3125-3.9375 17.328-3.9375 8-9.7344 12.344-5.7812 4.3438-14.516 6.5625t-21.406 2.2188h-50.578zm17.547-76.922h28.688q11.672 0 16.75-1.5312 6.6875-2 10.078-6.6094 3.4062-4.6094 3.4062-11.578 0-6.6094-3.1719-11.625-3.1719-5.0312-9.0625-6.875-5.875-1.8594-20.172-1.8594h-26.516v40.078zm0 61.266h33.031q8.5156 0 11.953-0.625 6.0625-1.0938 10.125-3.625 4.0781-2.5312 6.7031-7.375t2.625-11.172q0-7.4219-3.8125-12.891-3.7969-5.4844-10.547-7.7031-6.7344-2.2188-19.391-2.2188h-30.688v45.609z" fill="#000"/>
<path d="m133.27 1254.9h1994.1v1514.5h-1994.1z" fill="#000" fill-opacity="0" fill-rule="evenodd"/>
<path d="m133.27 1254.9h1994.1v1514.5h-1994.1z" fill-rule="evenodd" stroke="#000" stroke-dasharray="32.0,24.0,8.0,24.0" stroke-linecap="butt" stroke-linejoin="round" stroke-width="8"/>
<path d="m741.19 1350.1c0-52.635 42.669-95.304 95.304-95.304h477.01c25.276 0 49.517 10.041 67.39 27.914 17.873 17.873 27.914 42.114 27.914 67.39v381.2c0 52.635-42.669 95.304-95.304 95.304h-477.01c-52.635 0-95.304-42.669-95.304-95.304z" fill="#9fc5e8" fill-rule="evenodd"/>
<path d="m741.19 1350.1c0-52.635 42.669-95.304 95.304-95.304h477.01c25.276 0 49.517 10.041 67.39 27.914 17.873 17.873 27.914 42.114 27.914 67.39v381.2c0 52.635-42.669 95.304-95.304 95.304h-477.01c-52.635 0-95.304-42.669-95.304-95.304z" fill-rule="evenodd" stroke="#000" stroke-linecap="butt" stroke-linejoin="round"/>
<path d="m912.15 1607.7v-117h-43.703v-15.656h105.16v15.656h-43.891v117h-17.562zm70.594-113.94v-18.719h16.281v18.719h-16.281zm0 113.94v-96.109h16.281v96.109h-16.281zm42.44 0v-132.66h17.547v65.781l65.875-65.781h23.812l-55.656 53.75 58.094 78.906h-23.172l-47.234-67.141-21.719 21.172v45.969h-17.547zm162.25 0-51.406-132.66h19l34.484 96.375q4.1562 11.578 6.9688 21.719 3.0781-10.859 7.1406-21.719l35.844-96.375h17.922l-51.953 132.66h-18z" fill="#000"/>
<path d="m1075 1254.8 1052.3-660.13" fill="#000" fill-opacity="0" fill-rule="evenodd"/>
<path d="m1075 1254.8 1011.7-634.62" fill-rule="evenodd" stroke="#000" stroke-linecap="butt" stroke-linejoin="round" stroke-width="8"/>
<path d="m2093.7 631.42 23.733-30.486-37.776 8.0983z" fill="#000" fill-rule="evenodd" stroke="#000" stroke-linecap="butt" stroke-width="8"/>
<path d="m2127.3 285.8c0-85.306 252.91-154.46 564.9-154.46 311.98 0 564.9 69.155 564.9 154.46v617.84c0 85.307-252.91 154.46-564.9 154.46-311.98 0-564.9-69.155-564.9-154.46z" fill="#d9ead3" fill-rule="evenodd"/>
<path d="m3257.1 285.8c0 85.306-252.91 154.46-564.9 154.46-311.98 0-564.9-69.155-564.9-154.46" fill="#000" fill-opacity="0" fill-rule="evenodd"/>
<path d="m2127.3 285.8c0-85.306 252.91-154.46 564.9-154.46 311.98 0 564.9 69.155 564.9 154.46v617.84c0 85.307-252.91 154.46-564.9 154.46-311.98 0-564.9-69.155-564.9-154.46z" fill="#000" fill-opacity="0" fill-rule="evenodd"/>
<path d="m3257.1 285.8c0 85.306-252.91 154.46-564.9 154.46-311.98 0-564.9-69.155-564.9-154.46" fill-rule="evenodd" stroke="#000" stroke-linecap="butt" stroke-linejoin="round"/>
<path d="m2127.3 285.8c0-85.306 252.91-154.46 564.9-154.46 311.98 0 564.9 69.155 564.9 154.46v617.84c0 85.307-252.91 154.46-564.9 154.46-311.98 0-564.9-69.155-564.9-154.46z" fill-rule="evenodd" stroke="#000" stroke-linecap="butt" stroke-linejoin="round"/>
<path d="m2356.3 627.87v-128.44h78.391v15.391h-60.406v38.172h53.734v15.016h-53.734v44.484h65.047v15.375h-83.031zm164.02 0q-2.0469-4.0781-5.0156-9.0781-2.9531-5-6.4844-10.281-3.5156-5.2969-7.2344-10.484-3.7031-5.1875-7.2188-9.8125-3.5156 4.625-7.2344 9.9062-3.7031 5.2812-7.1406 10.562-3.4219 5.2812-6.3906 10.297-2.9531 5-5 8.8906h-17.781q6.4844-12.609 15.469-25.672t17.891-24.922l-31.875-45.781h19.453l22.984 33.734 23.156-33.734h18.359l-31.141 44.672q8.8906 12.047 18.25 25.484t15.844 26.219h-18.891zm53.187-96.375h36.5v14.453h-36.5v44.484q0 7.2344 1.1094 11.969 1.1094 4.7188 3.3281 7.4062 2.2344 2.6875 5.5625 3.7969 3.3438 1.1094 7.7812 1.1094 7.7969 0 12.516-1.75 4.7344-1.7656 6.5781-2.5156l3.3438 14.266q-2.5938 1.2969-9.0938 3.2344-6.4844 1.9531-14.812 1.9531-9.8281 0-16.219-2.5t-10.297-7.5q-3.8906-5-5.4688-12.312-1.5625-7.3281-1.5625-16.969v-86l17.234-2.9531v29.828zm51.148 48.375q0-12.781 3.7031-22.328t9.8125-15.844q6.125-6.3125 14.094-9.4531 7.9688-3.1562 16.312-3.1562 19.453 0 29.828 12.141 10.391 12.141 10.391 36.969 0 1.1094 0 2.875t-0.1875 3.25h-65.984q1.125 15 8.7188 22.797 7.5938 7.7812 23.719 7.7812 9.0781 0 15.281-1.5781 6.2188-1.5781 9.375-3.0625l2.4062 14.453q-3.1562 1.6719-11.031 3.5156-7.875 1.8594-17.891 1.8594-12.594 0-21.766-3.7969t-15.109-10.469q-5.9219-6.6719-8.7969-15.844t-2.875-20.109zm66.156-9.4531q0.1875-11.672-5.8438-19.172-6.0156-7.5156-16.578-7.5156-5.9219 0-10.469 2.3281-4.5469 2.3125-7.7031 6.0156-3.1406 3.7031-4.9062 8.5312-1.75 4.8125-2.3125 9.8125h47.812zm78.395-40.953q2.2344 0 5.0938 0.28125 2.875 0.26562 5.6562 0.73438t5.0938 0.9375q2.3281 0.45312 3.4375 0.82812l-2.9688 15q-2.0469-0.73438-6.7656-1.75t-12.141-1.0156q-4.8125 0-9.5469 1.0156-4.7188 1.0156-6.2031 1.3906v80.984h-17.234v-92.297q6.1094-2.2188 15.188-4.1562 9.0938-1.9531 20.391-1.9531zm35.958 4.8125q5.9219-1.4844 15.75-3.1406 9.8281-1.6719 22.609-1.6719 11.484 0 19.078 3.25 7.6094 3.2344 12.141 9.0781 4.5469 5.8281 6.3906 13.984 1.8594 8.1562 1.8594 17.984v54.109h-17.234v-50.406q0-8.9062-1.2031-15.203t-3.9844-10.188-7.4219-5.6562q-4.625-1.7656-11.484-1.7656-2.7656 0-5.7344 0.1875t-5.6562 0.46875-4.8281 0.65625q-2.125 0.35938-3.0469 0.54688v81.359h-17.234v-93.594zm138.99 81.172q6.125 0 10.844-0.26562 4.7344-0.28125 7.875-1.0312v-28.719q-1.8438-0.92188-6.0156-1.5625-4.1719-0.65625-10.109-0.65625-3.8906 0-8.25 0.5625-4.3438 0.54688-7.9688 2.3125-3.6094 1.75-6.0156 4.8125-2.4062 3.0469-2.4062 8.0625 0 9.2656 5.9219 12.875 5.9375 3.6094 16.125 3.6094zm-1.4688-86.359q10.375 0 17.5 2.6875 7.1406 2.6875 11.5 7.6094 4.3594 4.9062 6.2031 11.672 1.8594 6.7656 1.8594 14.906v60.234q-2.2344 0.375-6.2188 1.0312-3.9844 0.64062-8.9844 1.1875-5 0.5625-10.844 1.0156-5.8281 0.46875-11.578 0.46875-8.1562 0-15.016-1.6719-6.8594-1.6562-11.859-5.2656-5-3.625-7.7812-9.5469-2.7812-5.9375-2.7812-14.266 0-7.9688 3.2344-13.719 3.25-5.75 8.8125-9.2656 5.5625-3.5312 12.969-5.1875 7.4219-1.6719 15.578-1.6719 2.5938 0 5.3594 0.28125 2.7812 0.28125 5.2812 0.75 2.5156 0.45312 4.3594 0.82812 1.8594 0.35938 2.5938 0.54688v-4.8125q0-4.2656-0.92188-8.4375t-3.3438-7.4062q-2.4062-3.25-6.5781-5.1875-4.1562-1.9531-10.828-1.9531-8.5312 0-14.922 1.2031t-9.5469 2.5l-2.0312-14.266q3.3281-1.4844 11.109-2.875t16.875-1.3906zm94.507 100.64q-15.938-0.375-22.609-6.8594t-6.6719-20.203v-115.64l17.234-2.9688v115.83q0 4.2656 0.73438 7.0469 0.75 2.7812 2.4219 4.4531 1.6719 1.6562 4.4375 2.5 2.7812 0.82812 6.8594 1.375l-2.4062 14.469z" fill="#000"/>
<path d="m2408.6 837.09q28.172 0 28.172-19.281 0-5.9375-2.5156-10.094-2.5-4.1719-6.7656-7.2344-4.25-3.0625-9.7188-5.2812t-11.594-4.4531q-7.0312-2.4062-13.344-5.4531-6.2969-3.0625-10.938-7.2344-4.625-4.1719-7.3125-9.9062-2.6875-5.75-2.6875-13.906 0-16.875 11.484-26.312 11.5-9.4531 31.703-9.4531 11.672 0 21.219 2.5t13.984 5.4688l-5.7344 14.641q-3.8906-2.4219-11.594-4.7344-7.6875-2.3125-17.875-2.3125-5.1875 0-9.6406 1.1094t-7.7969 3.3438q-3.3281 2.2188-5.2812 5.6562-1.9375 3.4219-1.9375 8.0469 0 5.1875 2.0312 8.7188 2.0469 3.5156 5.75 6.2031 3.7188 2.6875 8.625 4.9219 4.9062 2.2188 10.844 4.4375 8.3438 3.3438 15.281 6.6875 6.9531 3.3281 12.047 7.9688 5.1094 4.625 7.875 11.016 2.7812 6.3906 2.7812 15.469 0 16.875-12.328 25.953-12.312 9.0781-34.734 9.0781-7.6094 0-14-1.0312-6.3906-1.0156-11.406-2.3906-5-1.3906-8.6094-2.9688t-5.6562-2.6875l5.375-14.828q4.2656 2.4062 12.969 5.375 8.7188 2.9688 21.328 2.9688zm83.766-83.594h36.5v14.453h-36.5v44.484q0 7.2344 1.1094 11.969 1.1094 4.7188 3.3281 7.4062 2.2344 2.6875 5.5625 3.7969 3.3438 1.1094 7.7812 1.1094 7.7969 0 12.516-1.75 4.7344-1.7656 6.5781-2.5156l3.3438 14.266q-2.5938 1.2969-9.0938 3.2344-6.4844 1.9531-14.812 1.9531-9.8281 0-16.219-2.5t-10.297-7.5q-3.8906-5-5.4688-12.312-1.5625-7.3281-1.5625-16.969v-86l17.234-2.9531v29.828zm140.84 48.188q0 11.5-3.3438 20.766-3.3281 9.2656-9.3594 15.938-6.0156 6.6719-14.359 10.281-8.3281 3.6094-18.156 3.6094t-18.172-3.6094q-8.3281-3.6094-14.359-10.281-6.0156-6.6719-9.3594-15.938-3.3281-9.2656-3.3281-20.766 0-11.297 3.3281-20.656 3.3438-9.3594 9.3594-16.031 6.0312-6.6719 14.359-10.281 8.3438-3.625 18.172-3.625t18.156 3.625q8.3438 3.6094 14.359 10.281 6.0312 6.6719 9.3594 16.031 3.3438 9.3594 3.3438 20.656zm-17.969 0q0-16.312-7.3281-25.844-7.3125-9.5469-19.922-9.5469t-19.938 9.5469q-7.3125 9.5312-7.3125 25.844t7.3125 25.859q7.3281 9.5469 19.938 9.5469t19.922-9.5469q7.3281-9.5469 7.3281-25.859zm77.828-50.219q2.2344 0 5.0938 0.28125 2.875 0.26562 5.6562 0.73438t5.0938 0.9375q2.3281 0.45312 3.4375 0.82812l-2.9688 15q-2.0469-0.73438-6.7656-1.75t-12.141-1.0156q-4.8125 0-9.5469 1.0156-4.7188 1.0156-6.2031 1.3906v80.984h-17.234v-92.297q6.1094-2.2188 15.188-4.1562 9.0938-1.9531 20.391-1.9531zm68.568 85.984q6.125 0 10.844-0.26562 4.7344-0.28125 7.875-1.0312v-28.719q-1.8438-0.92188-6.0156-1.5625-4.1719-0.65625-10.109-0.65625-3.8906 0-8.25 0.5625-4.3438 0.54688-7.9688 2.3125-3.6094 1.75-6.0156 4.8125-2.4062 3.0469-2.4062 8.0625 0 9.2656 5.9219 12.875 5.9375 3.6094 16.125 3.6094zm-1.4688-86.359q10.375 0 17.5 2.6875 7.1406 2.6875 11.5 7.6094 4.3594 4.9062 6.2031 11.672 1.8594 6.7656 1.8594 14.906v60.234q-2.2344 0.375-6.2188 1.0312-3.9844 0.64062-8.9844 1.1875-5 0.5625-10.844 1.0156-5.8281 0.46875-11.578 0.46875-8.1562 0-15.016-1.6719-6.8594-1.6562-11.859-5.2656-5-3.625-7.7812-9.5469-2.7812-5.9375-2.7812-14.266 0-7.9688 3.2344-13.719 3.25-5.75 8.8125-9.2656 5.5625-3.5312 12.969-5.1875 7.4219-1.6719 15.578-1.6719 2.5938 0 5.3594 0.28125 2.7812 0.28125 5.2812 0.75 2.5156 0.45312 4.3594 0.82812 1.8594 0.35938 2.5938 0.54688v-4.8125q0-4.2656-0.92188-8.4375t-3.3438-7.4062q-2.4062-3.25-6.5781-5.1875-4.1562-1.9531-10.828-1.9531-8.5312 0-14.922 1.2031t-9.5469 2.5l-2.0312-14.266q3.3281-1.4844 11.109-2.875t16.875-1.3906zm126.02 89.141q-2.2344 1.4844-8.625 3.8125-6.3906 2.3125-14.922 2.3125-8.7031 0-16.406-2.7812-7.6875-2.7812-13.438-8.6094-5.7344-5.8438-9.0781-14.547-3.3281-8.7188-3.3281-20.766 0-10.562 3.1406-19.359 3.1562-8.8125 9.1719-15.203 6.0312-6.4062 14.734-10.016 8.7188-3.6094 19.656-3.6094 12.047 0 21.031 1.7656 8.9844 1.75 15.109 3.2344v86q0 22.234-11.5 32.234-11.484 10.016-34.828 10.016-9.0938 0-17.156-1.4844t-13.984-3.5156l3.1562-15.016q5.1875 2.0312 12.688 3.6094t15.656 1.5781q15.391 0 22.156-6.125 6.7656-6.1094 6.7656-19.453v-4.0781zm-0.1875-71.531q-2.5938-0.75-6.9531-1.3906-4.3594-0.65625-11.766-0.65625-13.906 0-21.422 9.0938-7.5 9.0781-7.5 24.094 0 8.3281 2.125 14.266 2.1406 5.9219 5.75 9.8281 3.625 3.8906 8.3438 5.75 4.7344 1.8438 9.7344 1.8438 6.8594 0 12.594-1.9375 5.75-1.9531 9.0938-4.5469v-56.344zm41.51 33.172q0-12.781 3.7031-22.328t9.8125-15.844q6.125-6.3125 14.094-9.4531 7.9688-3.1562 16.312-3.1562 19.453 0 29.828 12.141 10.391 12.141 10.391 36.969 0 1.1094 0 2.875t-0.1875 3.25h-65.984q1.125 15 8.7188 22.797 7.5938 7.7812 23.719 7.7812 9.0781 0 15.281-1.5781 6.2188-1.5781 9.375-3.0625l2.4062 14.453q-3.1562 1.6719-11.031 3.5156-7.875 1.8594-17.891 1.8594-12.594 0-21.766-3.7969t-15.109-10.469q-5.9219-6.6719-8.7969-15.844t-2.875-20.109zm66.156-9.4531q0.1875-11.672-5.8438-19.172-6.0156-7.5156-16.578-7.5156-5.9219 0-10.469 2.3281-4.5469 2.3125-7.7031 6.0156-3.1406 3.7031-4.9062 8.5312-1.75 4.8125-2.3125 9.8125h47.812z" fill="#000"/>
<path d="m980.71 1508.9c0-52.635 42.669-95.304 95.304-95.304h477.01c25.276 0 49.517 10.041 67.39 27.914 17.873 17.873 27.914 42.114 27.914 67.39v381.2c0 52.635-42.669 95.304-95.304 95.304h-477.01c-52.635 0-95.304-42.669-95.304-95.304z" fill="#9fc5e8" fill-rule="evenodd"/>
<path d="m980.71 1508.9c0-52.635 42.669-95.304 95.304-95.304h477.01c25.276 0 49.517 10.041 67.39 27.914 17.873 17.873 27.914 42.114 27.914 67.39v381.2c0 52.635-42.669 95.304-95.304 95.304h-477.01c-52.635 0-95.304-42.669-95.304-95.304z" fill-rule="evenodd" stroke="#000" stroke-linecap="butt" stroke-linejoin="round"/>
<path d="m1151.7 1766.4v-117h-43.703v-15.656h105.16v15.656h-43.891v117h-17.562zm70.594-113.94v-18.719h16.281v18.719h-16.281zm0 113.94v-96.109h16.281v96.109h-16.281zm42.44 0v-132.66h17.547v65.781l65.875-65.781h23.812l-55.656 53.75 58.094 78.906h-23.172l-47.234-67.141-21.719 21.172v45.969h-17.547zm162.25 0-51.406-132.66h19l34.484 96.375q4.1562 11.578 6.9688 21.719 3.0781-10.859 7.1406-21.719l35.844-96.375h17.922l-51.953 132.66h-18z" fill="#000"/>
<path d="m1314.5 1413.6 812.82-818.87" fill="#000" fill-opacity="0" fill-rule="evenodd"/>
<path d="m1314.5 1413.6 779-784.8" fill-rule="evenodd" stroke="#000" stroke-linecap="butt" stroke-linejoin="round" stroke-width="8"/>
<path d="m2102.9 638.09 16.198-35.075-34.954 16.457z" fill="#000" fill-rule="evenodd" stroke="#000" stroke-linecap="butt" stroke-width="8"/>
<path d="m1220.2 1667.6c0-52.635 42.669-95.304 95.304-95.304h477.01c25.276 0 49.517 10.041 67.39 27.914 17.873 17.873 27.914 42.114 27.914 67.39v381.2c0 52.635-42.669 95.304-95.304 95.304h-477.01c-52.635 0-95.304-42.669-95.304-95.304z" fill="#9fc5e8" fill-rule="evenodd"/>
<path d="m1220.2 1667.6c0-52.635 42.669-95.304 95.304-95.304h477.01c25.276 0 49.517 10.041 67.39 27.914 17.873 17.873 27.914 42.114 27.914 67.39v381.2c0 52.635-42.669 95.304-95.304 95.304h-477.01c-52.635 0-95.304-42.669-95.304-95.304z" fill-rule="evenodd" stroke="#000" stroke-linecap="butt" stroke-linejoin="round"/>
<path d="m1391.2 1925.1v-117h-43.703v-15.656h105.16v15.656h-43.891v117h-17.562zm70.594-113.94v-18.719h16.281v18.719h-16.281zm0 113.94v-96.109h16.281v96.109h-16.281zm42.44 0v-132.66h17.547v65.781l65.875-65.781h23.812l-55.656 53.75 58.094 78.906h-23.172l-47.234-67.141-21.719 21.172v45.969h-17.547zm162.25 0-51.406-132.66h19l34.484 96.375q4.1562 11.578 6.9688 21.719 3.0781-10.859 7.1406-21.719l35.844-96.375h17.922l-51.953 132.66h-18z" fill="#000"/>
<path d="m1554 1572.3 573.29-977.57" fill="#000" fill-opacity="0" fill-rule="evenodd"/>
<path d="m1554 1572.3 549.01-936.17" fill-rule="evenodd" stroke="#000" stroke-linecap="butt" stroke-linejoin="round" stroke-width="8"/>
<path d="m2114.4 642.82 6.967-38.001-29.764 24.632z" fill="#000" fill-rule="evenodd" stroke="#000" stroke-linecap="butt" stroke-width="8"/>
<path d="m1459.7 1826.3c0-52.635 42.669-95.304 95.304-95.304h477.01c25.276 0 49.517 10.041 67.39 27.914 17.873 17.873 27.914 42.114 27.914 67.39v381.2c0 52.635-42.669 95.304-95.304 95.304h-477.01c-52.635 0-95.304-42.669-95.304-95.304z" fill="#9fc5e8" fill-rule="evenodd"/>
<path d="m1459.7 1826.3c0-52.635 42.669-95.304 95.304-95.304h477.01c25.276 0 49.517 10.041 67.39 27.914 17.873 17.873 27.914 42.114 27.914 67.39v381.2c0 52.635-42.669 95.304-95.304 95.304h-477.01c-52.635 0-95.304-42.669-95.304-95.304z" fill-rule="evenodd" stroke="#000" stroke-linecap="butt" stroke-linejoin="round"/>
<path d="m1630.7 2083.9v-117h-43.703v-15.656h105.16v15.656h-43.891v117h-17.562zm70.594-113.94v-18.719h16.281v18.719h-16.281zm0 113.94v-96.109h16.281v96.109h-16.281zm42.44 0v-132.66h17.547v65.781l65.875-65.781h23.812l-55.656 53.75 58.094 78.906h-23.172l-47.234-67.14-21.719 21.172v45.969h-17.547zm162.25 0-51.406-132.66h19l34.484 96.375q4.1562 11.578 6.9688 21.719 3.0781-10.859 7.1406-21.719l35.844-96.375h17.922l-51.953 132.66h-18z" fill="#000"/>
<path d="m1793.6 1731 333.8-1136.3" fill="#000" fill-opacity="0" fill-rule="evenodd"/>
<path d="m1793.6 1731 320.27-1090.3" fill-rule="evenodd" stroke="#000" stroke-linecap="butt" stroke-linejoin="round" stroke-width="8"/>
<path d="m2126.5 644.5-2.4458-38.557-22.91 31.109z" fill="#000" fill-rule="evenodd" stroke="#000" stroke-linecap="butt" stroke-width="8"/>
<path d="m3925.5 1345.3c0-52.635 42.669-95.304 95.304-95.304h477.01c25.276 0 49.517 10.041 67.39 27.914 17.873 17.873 27.914 42.114 27.914 67.39v381.2c0 52.635-42.669 95.304-95.304 95.304h-477.01c-52.635 0-95.304-42.669-95.304-95.304z" fill="#d5a6bd" fill-rule="evenodd"/>
<path d="m3925.5 1345.3c0-52.635 42.669-95.304 95.304-95.304h477.01c25.276 0 49.517 10.041 67.39 27.914 17.873 17.873 27.914 42.114 27.914 67.39v381.2c0 52.635-42.669 95.304-95.304 95.304h-477.01c-52.635 0-95.304-42.669-95.304-95.304z" fill-rule="evenodd" stroke="#000" stroke-linecap="butt" stroke-linejoin="round"/>
<path d="m4096.5 1602.8v-117h-43.703v-15.656h105.16v15.656h-43.891v117h-17.562zm70.594-113.94v-18.719h16.281v18.719h-16.281zm0 113.94v-96.109h16.281v96.109h-16.281zm42.44 0v-132.66h17.547v65.781l65.875-65.781h23.812l-55.656 53.75 58.094 78.906h-23.172l-47.234-67.141-21.719 21.172v45.969h-17.547zm162.25 0-51.406-132.66h19l34.484 96.375q4.1562 11.578 6.9688 21.719 3.0781-10.859 7.1406-21.719l35.844-96.375h17.922l-51.953 132.66h-18z" fill="#000"/>
<path d="m3705.2 1504c0-52.635 42.669-95.304 95.304-95.304h477.01c25.276 0 49.517 10.041 67.39 27.914 17.873 17.873 27.914 42.114 27.914 67.39v381.2c0 52.635-42.669 95.304-95.304 95.304h-477.01c-52.635 0-95.304-42.669-95.304-95.304z" fill="#d5a6bd" fill-rule="evenodd"/>
<path d="m3705.2 1504c0-52.635 42.669-95.304 95.304-95.304h477.01c25.276 0 49.517 10.041 67.39 27.914 17.873 17.873 27.914 42.114 27.914 67.39v381.2c0 52.635-42.669 95.304-95.304 95.304h-477.01c-52.635 0-95.304-42.669-95.304-95.304z" fill-rule="evenodd" stroke="#000" stroke-linecap="butt" stroke-linejoin="round"/>
<path d="m3876.2 1761.6v-117h-43.703v-15.656h105.16v15.656h-43.891v117h-17.562zm70.594-113.94v-18.719h16.281v18.719h-16.281zm0 113.94v-96.109h16.281v96.109h-16.281zm42.439 0v-132.66h17.547v65.781l65.875-65.781h23.812l-55.656 53.75 58.094 78.906h-23.172l-47.234-67.141-21.719 21.172v45.969h-17.547zm162.25 0-51.406-132.66h19l34.484 96.375q4.1562 11.578 6.9688 21.719 3.0781-10.859 7.1406-21.719l35.844-96.375h17.922l-51.953 132.66h-18z" fill="#000"/>
<path d="m3496.7 1662.7c0-52.635 42.669-95.304 95.304-95.304h477.01c25.276 0 49.517 10.041 67.39 27.914 17.873 17.873 27.914 42.114 27.914 67.39v381.2c0 52.635-42.669 95.304-95.303 95.304h-477.01c-52.635 0-95.304-42.669-95.304-95.304z" fill="#d5a6bd" fill-rule="evenodd"/>
<path d="m3496.7 1662.7c0-52.635 42.669-95.304 95.304-95.304h477.01c25.276 0 49.517 10.041 67.39 27.914 17.873 17.873 27.914 42.114 27.914 67.39v381.2c0 52.635-42.669 95.304-95.303 95.304h-477.01c-52.635 0-95.304-42.669-95.304-95.304z" fill-rule="evenodd" stroke="#000" stroke-linecap="butt" stroke-linejoin="round"/>
<path d="m3667.6 1920.2v-117h-43.703v-15.656h105.16v15.656h-43.891v117h-17.562zm70.594-113.94v-18.719h16.281v18.719h-16.281zm0 113.94v-96.109h16.281v96.109h-16.281zm42.44 0v-132.66h17.547v65.781l65.875-65.781h23.812l-55.656 53.75 58.094 78.906h-23.172l-47.234-67.141-21.719 21.172v45.969h-17.547zm162.25 0-51.406-132.66h19l34.484 96.375q4.1562 11.578 6.9688 21.719 3.0781-10.859 7.1406-21.719l35.844-96.375h17.922l-51.953 132.66h-18z" fill="#000"/>
<path d="m3257.1 1827.7c0-52.635 42.669-95.304 95.304-95.304h477.01c25.276 0 49.517 10.041 67.39 27.914 17.873 17.873 27.914 42.114 27.914 67.39v381.2c0 52.635-42.669 95.304-95.304 95.304h-477.01c-52.635 0-95.304-42.669-95.304-95.304z" fill="#d5a6bd" fill-rule="evenodd"/>
<path d="m3257.1 1827.7c0-52.635 42.669-95.304 95.304-95.304h477.01c25.276 0 49.517 10.041 67.39 27.914 17.873 17.873 27.914 42.114 27.914 67.39v381.2c0 52.635-42.669 95.304-95.304 95.304h-477.01c-52.635 0-95.304-42.669-95.304-95.304z" fill-rule="evenodd" stroke="#000" stroke-linecap="butt" stroke-linejoin="round"/>
<path d="m3428.1 2085.2v-117h-43.703v-15.656h105.16v15.656h-43.891v117h-17.562zm70.594-113.94v-18.719h16.281v18.719h-16.281zm0 113.94v-96.109h16.281v96.109h-16.281zm42.439 0v-132.66h17.547v65.781l65.875-65.781h23.812l-55.656 53.75 58.094 78.906h-23.172l-47.234-67.14-21.719 21.172v45.969h-17.547zm162.25 0-51.406-132.66h19l34.484 96.375q4.1562 11.578 6.9688 21.719 3.0781-10.859 7.1406-21.719l35.844-96.375h17.922l-51.953 132.66h-18z" fill="#000"/>
<path d="m3257.1 594.72 1002.2 655.28" fill="#000" fill-opacity="0" fill-rule="evenodd"/>
<path d="m3257.1 594.72 962.03 629.01" fill-rule="evenodd" stroke="#000" stroke-linecap="butt" stroke-linejoin="round" stroke-width="8"/>
<path d="m4211.9 1234.8 37.617 8.8079-23.155-30.927z" fill="#000" fill-rule="evenodd" stroke="#000" stroke-linecap="butt" stroke-width="8"/>
<path d="m3257.1 594.72 781.92 814.02" fill="#000" fill-opacity="0" fill-rule="evenodd"/>
<path d="m3257.1 594.72 748.67 779.4" fill-rule="evenodd" stroke="#000" stroke-linecap="butt" stroke-linejoin="round" stroke-width="8"/>
<path d="m3996.3 1383.3 34.68 17.029-15.621-35.336z" fill="#000" fill-rule="evenodd" stroke="#000" stroke-linecap="butt" stroke-width="8"/>
<path d="m3257.1 594.72 573.32 972.66" fill="#000" fill-opacity="0" fill-rule="evenodd"/>
<path d="m3257.1 594.72 548.95 931.31" fill-rule="evenodd" stroke="#000" stroke-linecap="butt" stroke-linejoin="round" stroke-width="8"/>
<path d="m3794.7 1532.7 29.819 24.566-7.0518-37.986z" fill="#000" fill-rule="evenodd" stroke="#000" stroke-linecap="butt" stroke-width="8"/>
<path d="m3257.1 594.72 333.8 1137.7" fill="#000" fill-opacity="0" fill-rule="evenodd"/>
<path d="m3257.1 594.72 320.28 1091.6" fill-rule="evenodd" stroke="#000" stroke-linecap="butt" stroke-linejoin="round" stroke-width="8"/>
<path d="m3564.7 1690.1 22.9 31.116 2.4583-38.557z" fill="#000" fill-rule="evenodd" stroke="#000" stroke-linecap="butt" stroke-width="8"/>
<path d="m2384.8 3602.1c0-49.643 40.243-89.886 89.886-89.886h435.06c23.839 0 46.702 9.4702 63.559 26.327 16.857 16.857 26.327 39.72 26.327 63.559v359.53c0 49.643-40.244 89.886-89.886 89.886h-435.06c-49.643 0-89.886-40.243-89.886-89.886z" fill="#d0e0e3" fill-rule="evenodd"/>
<path d="m2384.8 3602.1c0-49.643 40.243-89.886 89.886-89.886h435.06c23.839 0 46.702 9.4702 63.559 26.327 16.857 16.857 26.327 39.72 26.327 63.559v359.53c0 49.643-40.244 89.886-89.886 89.886h-435.06c-49.643 0-89.886-40.243-89.886-89.886z" fill-rule="evenodd" stroke="#000" stroke-linecap="butt" stroke-linejoin="round"/>
<path d="m2577.1 3848.8v-132.66h49.766q15.203 0 24.391 4.0312 9.1875 4.0156 14.391 12.391t5.2031 17.5q0 8.5156-4.625 16.031-4.6094 7.5-13.938 12.125 12.047 3.5156 18.516 12.031 6.4688 8.5 6.4688 20.094 0 9.3125-3.9375 17.328-3.9375 8-9.7344 12.344-5.7812 4.3438-14.516 6.5625t-21.406 2.2188h-50.578zm17.547-76.922h28.688q11.672 0 16.75-1.5312 6.6875-2 10.078-6.6094 3.4062-4.6094 3.4062-11.578 0-6.6094-3.1719-11.625-3.1719-5.0312-9.0625-6.875-5.875-1.8594-20.172-1.8594h-26.516v40.078zm0 61.266h33.031q8.5156 0 11.953-0.625 6.0625-1.0938 10.125-3.625 4.0781-2.5312 6.7031-7.375t2.625-11.172q0-7.4219-3.8125-12.891-3.7969-5.4844-10.547-7.7031-6.7344-2.2188-19.391-2.2188h-30.688v45.609zm107.05 15.656v-132.66h58.828q17.734 0 26.969 3.5781 9.2344 3.5625 14.75 12.609t5.5156 20q0 14.125-9.1406 23.812-9.1406 9.6719-28.234 12.297 6.9688 3.3438 10.594 6.6094 7.6875 7.0625 14.562 17.641l23.078 36.109h-22.078l-17.562-27.594q-7.6875-11.953-12.672-18.281-4.9688-6.3438-8.9062-8.875t-8-3.5312q-3-0.625-9.7812-0.625h-20.359v58.906h-17.562zm17.562-74.109h37.734q12.031 0 18.812-2.4844 6.7969-2.5 10.328-7.9688 3.5312-5.4844 3.5312-11.906 0-9.4062-6.8438-15.469-6.8281-6.0625-21.578-6.0625h-41.984v43.891z" fill="#000"/>
<path d="m2384.8 3781.9-1254.5-1012.5" fill="#000" fill-opacity="0" fill-rule="evenodd"/>
<path d="m2384.8 3781.9-1217.2-982.39" fill-rule="evenodd" stroke="#000" stroke-dasharray="32.0,24.0,8.0,24.0" stroke-linecap="butt" stroke-linejoin="round" stroke-width="8"/>
<path d="m1176 2789.2-36.55-12.519 19.952 33.084z" fill="#000" fill-rule="evenodd" stroke="#000" stroke-linecap="butt" stroke-width="8"/>
<path d="m2999.7 3781.9 1254.5-1012.5" fill="#000" fill-opacity="0" fill-rule="evenodd"/>
<path d="m2999.7 3781.9 1217.2-982.39" fill-rule="evenodd" stroke="#000" stroke-dasharray="32.0,24.0,8.0,24.0" stroke-linecap="butt" stroke-linejoin="round" stroke-width="8"/>
<path d="m4225.1 2809.8 19.952-33.084-36.55 12.519z" fill="#000" fill-rule="evenodd" stroke="#000" stroke-linecap="butt" stroke-width="8"/>
<path d="m803.21 3401.3h1084.4v380.57h-1084.4z" fill="#000" fill-opacity="0" fill-rule="evenodd"/>
<path d="m803.21 3401.3h1084.4v380.57h-1084.4z" fill-rule="evenodd" stroke="#000" stroke-dasharray="64.0,24.0,8.0,24.0" stroke-linecap="butt" stroke-linejoin="round" stroke-width="8"/>
<path d="m952.83 3634.8v-12.016h12v12.016h-12zm22.434 1.4688 24.906-88.828h8.4375l-24.844 88.828h-8.5zm50.981-1.4688h-9.7813v-85.906h10.547v30.656q6.6719-8.3906 17.047-8.3906 5.7344 0 10.859 2.3281 5.1406 2.3125 8.4375 6.5 3.3125 4.1875 5.1875 10.109 1.875 5.9062 1.875 12.656 0 15.984-7.9062 24.719t-18.984 8.7344q-11.016 0-17.281-9.2031v7.7969zm-0.125-31.578q0 11.188 3.0469 16.172 4.9844 8.1406 13.484 8.1406 6.9062 0 11.938-6 5.0469-6.0156 5.0469-17.906 0-12.188-4.8281-17.984-4.8281-5.8125-11.688-5.8125-6.9219 0-11.969 6.0156-5.0312 6-5.0312 17.375zm57.02 31.578v-62.234h9.4844v9.4375q3.6406-6.625 6.7188-8.7344t6.7656-2.1094q5.3281 0 10.844 3.4062l-3.6406 9.7812q-3.8594-2.2812-7.7344-2.2812-3.4531 0-6.2188 2.0781-2.75 2.0781-3.9219 5.7656-1.75 5.625-1.75 12.312v32.578h-10.547zm83.145 0h-9.7812v-85.906h10.547v30.656q6.6719-8.3906 17.047-8.3906 5.7344 0 10.859 2.3281 5.1406 2.3125 8.4375 6.5 3.3125 4.1875 5.1875 10.109 1.875 5.9062 1.875 12.656 0 15.984-7.9062 24.719t-18.984 8.7344q-11.016 0-17.281-9.2031v7.7969zm-0.125-31.578q0 11.188 3.0469 16.172 4.9844 8.1406 13.484 8.1406 6.9062 0 11.938-6 5.0469-6.0156 5.0469-17.906 0-12.188-4.8281-17.984-4.8281-5.8125-11.688-5.8125-6.9219 0-11.969 6.0156-5.0312 6-5.0312 17.375zm97.738 23.906q-5.8594 4.9688-11.281 7.0312-5.4219 2.0469-11.625 2.0469-10.25 0-15.766-5-5.5-5.0156-5.5-12.812 0-4.5781 2.0781-8.3438 2.0781-3.7812 5.4375-6.0625 3.375-2.2969 7.5938-3.4688 3.1094-0.8125 9.375-1.5781 12.781-1.5312 18.812-3.6406 0.0625-2.1562 0.0625-2.75 0-6.4375-3-9.0781-4.0312-3.5781-12-3.5781-7.4531 0-11 2.6094-3.5312 2.6094-5.2344 9.2344l-10.312-1.4062q1.4062-6.625 4.625-10.688 3.2188-4.0781 9.3125-6.2812t14.125-2.2031q7.9688 0 12.953 1.875t7.3281 4.7188 3.2812 7.1875q0.51562 2.6875 0.51562 9.7188v14.062q0 14.703 0.67188 18.609 0.6875 3.8906 2.6719 7.4688h-11.016q-1.6406-3.2812-2.1094-7.6719zm-0.875-23.562q-5.75 2.3438-17.234 3.9844-6.5 0.9375-9.2031 2.1094-2.6875 1.1719-4.1562 3.4375-1.4531 2.25-1.4531 5 0 4.2188 3.1875 7.0312t9.3438 2.8125q6.0938 0 10.844-2.6562 4.75-2.6719 6.9688-7.2969 1.7031-3.5781 1.7031-10.547v-3.875zm67.613 8.4375 10.375 1.3438q-1.7031 10.734-8.7031 16.797t-17.203 6.0625q-12.766 0-20.531-8.3438-7.7656-8.3594-7.7656-23.938 0-10.078 3.3438-17.641t10.156-11.344q6.8281-3.7812 14.859-3.7812 10.141 0 16.578 5.1406 6.4531 5.125 8.2656 14.547l-10.25 1.5938q-1.4688-6.2812-5.1875-9.4375-3.7188-3.1719-9-3.1719-7.9688 0-12.953 5.7188-4.9688 5.7188-4.9688 18.078 0 12.531 4.7969 18.219 4.8125 5.6875 12.547 5.6875 6.2031 0 10.359-3.8125 4.1719-3.8125 5.2812-11.719zm19.453 22.797v-85.906h10.547v48.984l24.969-25.312h13.641l-23.781 23.094 26.188 39.141h-13l-20.578-31.812-7.4375 7.1406v24.672h-10.547zm100.72 0v-9.1406q-7.2656 10.547-19.734 10.547-5.5156 0-10.297-2.1094-4.7656-2.1094-7.0781-5.2969-2.3125-3.2031-3.25-7.8281-0.65625-3.1094-0.65625-9.8438v-38.562h10.547v34.516q0 8.2656 0.65625 11.141 0.98438 4.1562 4.2031 6.5312 3.2344 2.375 7.9844 2.375 4.7344 0 8.8906-2.4375 4.1719-2.4375 5.8906-6.625 1.7344-4.1875 1.7344-12.156v-33.344h10.547v62.234h-9.4375zm25.957 23.844v-86.078h9.6094v8.0938q3.4062-4.75 7.6719-7.125 4.2812-2.375 10.375-2.375 7.9688 0 14.062 4.1094 6.0938 4.0938 9.2031 11.578 3.1094 7.4688 3.1094 16.375 0 9.5469-3.4375 17.203-3.4219 7.6406-9.9531 11.719-6.5312 4.0625-13.734 4.0625-5.2812 0-9.4688-2.2188-4.1875-2.2344-6.8906-5.6406v30.297h-10.547zm9.5625-54.609q0 12.016 4.8594 17.766 4.8594 5.7344 11.781 5.7344 7.0312 0 12.031-5.9375 5.0156-5.9531 5.0156-18.438 0-11.891-4.8906-17.812t-11.688-5.9219q-6.75 0-11.938 6.2969-5.1719 6.2969-5.1719 18.312zm83.484 30.766 22.734-32.344-21.031-29.891h13.188l9.5469 14.594q2.7031 4.1562 4.3438 6.9688 2.5781-3.8594 4.7344-6.8438l10.5-14.719h12.594l-21.5 29.297 23.141 32.938h-12.953l-12.766-19.344-3.4062-5.2031-16.344 24.547h-12.781zm60 0 22.734-32.344-21.031-29.891h13.188l9.5469 14.594q2.7031 4.1562 4.3438 6.9688 2.5781-3.8594 4.7344-6.8438l10.5-14.719h12.594l-21.5 29.297 23.141 32.938h-12.953l-12.766-19.344-3.4062-5.2031-16.344 24.547h-12.781zm60 0 22.734-32.344-21.031-29.891h13.188l9.5469 14.594q2.7031 4.1562 4.3438 6.9688 2.5781-3.8594 4.7344-6.8438l10.5-14.719h12.594l-21.5 29.297 23.141 32.938h-12.953l-12.766-19.344-3.4062-5.2031-16.344 24.547h-12.781z" fill="#000"/>
<path d="m3496.8 3401.3h1084.4v380.57h-1084.4z" fill="#000" fill-opacity="0" fill-rule="evenodd"/>
<path d="m3496.8 3401.3h1084.4v380.57h-1084.4z" fill-rule="evenodd" stroke="#000" stroke-dasharray="64.0,24.0,8.0,24.0" stroke-linecap="butt" stroke-linejoin="round" stroke-width="8"/>
<path d="m3653.2 3634.8v-12.016h12v12.016h-12zm22.434 1.4688 24.906-88.828h8.4375l-24.844 88.828h-8.5zm50.98-1.4688h-9.7812v-85.906h10.547v30.656q6.6719-8.3906 17.047-8.3906 5.7344 0 10.859 2.3281 5.1406 2.3125 8.4375 6.5 3.3125 4.1875 5.1875 10.109 1.875 5.9062 1.875 12.656 0 15.984-7.9062 24.719t-18.984 8.7344q-11.016 0-17.281-9.2031v7.7969zm-0.125-31.578q0 11.188 3.0469 16.172 4.9844 8.1406 13.484 8.1406 6.9062 0 11.938-6 5.0469-6.0156 5.0469-17.906 0-12.188-4.8281-17.984-4.8281-5.8125-11.688-5.8125-6.9219 0-11.969 6.0156-5.0312 6-5.0312 17.375zm57.02 31.578v-62.234h9.4844v9.4375q3.6406-6.625 6.7188-8.7344t6.7656-2.1094q5.3281 0 10.844 3.4062l-3.6406 9.7812q-3.8594-2.2812-7.7344-2.2812-3.4531 0-6.2188 2.0781-2.75 2.0781-3.9219 5.7656-1.75 5.625-1.75 12.312v32.578h-10.547zm73.301 0v-62.234h9.4844v9.4375q3.6406-6.625 6.7188-8.7344t6.7656-2.1094q5.3281 0 10.844 3.4062l-3.6406 9.7812q-3.8594-2.2812-7.7344-2.2812-3.4531 0-6.2188 2.0781-2.75 2.0781-3.9219 5.7656-1.75 5.625-1.75 12.312v32.578h-10.547zm82.68-20.047 10.891 1.3594q-2.5781 9.5469-9.5469 14.828-6.9688 5.2656-17.812 5.2656-13.656 0-21.656-8.4062t-8-23.594q0-15.703 8.0781-24.375 8.0938-8.6719 20.984-8.6719 12.484 0 20.391 8.5 7.9219 8.5 7.9219 23.906 0 0.9375-0.0625 2.8125h-46.406q0.57812 10.25 5.7969 15.703t13.016 5.4531q5.7969 0 9.8906-3.0469 4.1094-3.0469 6.5156-9.7344zm-34.641-17.047h34.75q-0.70312-7.8438-3.9844-11.781-5.0312-6.0938-13.062-6.0938-7.2656 0-12.219 4.875-4.9531 4.8594-5.4844 13zm54.551 18.516 10.438-1.6406q0.875 6.2656 4.8906 9.6094t11.219 3.3438q7.2656 0 10.781-2.9531 3.5156-2.9688 3.5156-6.9531 0-3.5781-3.1094-5.625-2.1562-1.4062-10.781-3.5781-11.594-2.9219-16.078-5.0625t-6.7969-5.9219-2.3125-8.3438q0-4.1562 1.9062-7.7031t5.1875-5.8906q2.4531-1.8125 6.7031-3.0781t9.1094-1.2656q7.3281 0 12.859 2.1094 5.5469 2.1094 8.1719 5.7188 2.6406 3.6094 3.6406 9.6406l-10.312 1.4062q-0.70312-4.8125-4.0781-7.5-3.3594-2.7031-9.5156-2.7031-7.2656 0-10.375 2.4062t-3.1094 5.625q0 2.0469 1.2969 3.6875 1.2812 1.7031 4.0469 2.8125 1.5781 0.59375 9.3125 2.7031 11.188 2.9844 15.609 4.8906t6.9375 5.5469q2.5312 3.625 2.5312 9.0156 0 5.2656-3.0781 9.9375-3.0781 4.6562-8.875 7.2031t-13.125 2.5469q-12.125 0-18.484-5.0312-6.3594-5.0469-8.125-14.953zm87.25 9.1406 1.5312 9.3125q-4.4531 0.95312-7.9688 0.95312-5.75 0-8.9219-1.8125-3.1562-1.8281-4.4531-4.7812-1.2812-2.9688-1.2812-12.453v-35.812h-7.7344v-8.2031h7.7344v-15.406l10.484-6.3281v21.734h10.609v8.2031h-10.609v36.391q0 4.5156 0.5625 5.8125 0.5625 1.2812 1.8125 2.0469 1.2656 0.75 3.6094 0.75 1.75 0 4.625-0.40625zm6.3867-21.672q0-17.297 9.6094-25.609 8.0312-6.9219 19.578-6.9219 12.828 0 20.969 8.4219 8.1406 8.4062 8.1406 23.219 0 12.016-3.6094 18.906-3.5938 6.875-10.484 10.688-6.8752 3.8125-15.016 3.8125-13.078 0-21.141-8.375-8.0469-8.3906-8.0469-24.141zm10.844 0q0 11.953 5.2031 17.906 5.2188 5.9375 13.141 5.9375 7.8438 0 13.062-5.9688 5.219-5.9844 5.219-18.234 0-11.547-5.2502-17.484-5.25-5.9531-13.031-5.9531-7.9219 0-13.141 5.9219-5.2031 5.9219-5.2031 17.875zm59.707 31.109v-62.234h9.4844v9.4375q3.6406-6.625 6.7188-8.7344t6.7656-2.1094q5.3281 0 10.844 3.4062l-3.6406 9.7812q-3.8594-2.2812-7.7344-2.2812-3.4531 0-6.2188 2.0781-2.75 2.0781-3.9219 5.7656-1.75 5.625-1.75 12.312v32.578h-10.547zm82.68-20.047 10.891 1.3594q-2.5781 9.5469-9.5469 14.828-6.9688 5.2656-17.812 5.2656-13.656 0-21.656-8.4062t-8-23.594q0-15.703 8.0781-24.375 8.0938-8.6719 20.984-8.6719 12.484 0 20.391 8.5 7.9219 8.5 7.9219 23.906 0 0.9375-0.0625 2.8125h-46.406q0.57812 10.25 5.7969 15.703t13.016 5.4531q5.7969 0 9.8906-3.0469 4.1094-3.0469 6.5156-9.7344zm-34.641-17.047h34.75q-0.70312-7.8438-3.9844-11.781-5.0312-6.0938-13.062-6.0938-7.2656 0-12.219 4.875-4.9531 4.8594-5.4844 13zm85.078 37.094 22.734-32.344-21.031-29.891h13.188l9.5469 14.594q2.7031 4.1562 4.3438 6.9688 2.5781-3.8594 4.7344-6.8438l10.5-14.719h12.594l-21.5 29.297 23.141 32.938h-12.953l-12.766-19.344-3.4062-5.2031-16.344 24.547h-12.781zm60 0 22.734-32.344-21.031-29.891h13.188l9.5469 14.594q2.7031 4.1562 4.3438 6.9688 2.5781-3.8594 4.7344-6.8438l10.5-14.719h12.594l-21.5 29.297 23.141 32.938h-12.953l-12.766-19.344-3.4062-5.2031-16.344 24.547h-12.781zm60 0 22.734-32.344-21.031-29.891h13.188l9.5469 14.594q2.7031 4.1562 4.3438 6.9688 2.5781-3.8594 4.7344-6.8438l10.5-14.719h12.594l-21.5 29.297 23.141 32.938h-12.953l-12.766-19.344-3.4062-5.2031-16.344 24.547h-12.781z" fill="#000"/>
<path d="m3868.4 414.74 461.1-5.3228" fill="#000" fill-opacity="0" fill-rule="evenodd"/>
<path d="m3868.4 414.74 413.11-4.7688" fill-rule="evenodd" stroke="#000" stroke-dasharray="32.0,24.0,8.0,24.0" stroke-linecap="butt" stroke-linejoin="round" stroke-width="8"/>
<path d="m4281.7 423.19 36.15-13.632-36.455-12.794z" fill="#000" fill-rule="evenodd" stroke="#000" stroke-linecap="butt" stroke-width="8"/>
<path d="m4325.6 246.01h868.79v449.32h-868.79z" fill="#000" fill-opacity="0" fill-rule="evenodd"/>
<path d="m4461.6 445.01q-7.7812 0-14.188-2.5469-6.3906-2.5625-10.984-7.4688-4.5781-4.9062-7.0938-12.109-2.5-7.2031-2.5-16.484 0-9.2656 2.8281-16.469t7.625-12.109 11.188-7.4688q6.4062-2.5625 13.656-2.5625 4.5938 0 8.2656 0.64062 3.6875 0.64062 6.4062 1.5 2.7188 0.84375 4.4219 1.7031t2.3438 1.2812l-2.9844 8.5312q-0.95312-0.64062-2.7656-1.375-1.8125-0.75-4.1094-1.5t-5.0156-1.2188q-2.7188-0.48438-5.4844-0.48438-5.875 0-10.578 2.0312-4.6875 2.0156-8 5.8594-3.2969 3.8281-5.0625 9.3281-1.75 5.5-1.75 12.312 0 6.625 1.5469 12.062t4.6406 9.3281 7.7344 6.0312q4.6406 2.125 10.828 2.125 7.1406 0 11.828-1.4844 4.7031-1.5 7.0469-2.6719l2.6562 8.5312q-0.73438 0.53125-2.6562 1.3438-1.9219 0.79688-4.8125 1.5469-2.875 0.73438-6.7188 1.2656-3.8281 0.53125-8.3125 0.53125zm81.059-29.328q0 6.6094-1.9219 11.953-1.9219 5.3281-5.3906 9.1719-3.4531 3.8438-8.2656 5.9219-4.7969 2.0781-10.438 2.0781-5.6562 0-10.453-2.0781t-8.2656-5.9219-5.3906-9.1719q-1.9219-5.3438-1.9219-11.953 0-6.5 1.9219-11.891t5.3906-9.2188q3.4688-3.8438 8.2656-5.9219t10.453-2.0781q5.6406 0 10.438 2.0781 4.8125 2.0781 8.2656 5.9219 3.4688 3.8281 5.3906 9.2188t1.9219 11.891zm-10.344 0q0-9.375-4.2188-14.875-4.2031-5.5-11.453-5.5t-11.469 5.5-4.2188 14.875q0 9.3906 4.2188 14.891 4.2188 5.4844 11.469 5.4844t11.453-5.4844q4.2188-5.5 4.2188-14.891zm24.318-26.125q3.4219-0.85938 9.0156-1.8125 5.5938-0.96875 12.953-0.96875 5.3438 0 8.9688 1.4531 3.625 1.4375 6.0781 4.2031 0.73438-0.53125 2.3281-1.4844 1.6094-0.96875 3.9531-1.875 2.3594-0.90625 5.2344-1.5938 2.875-0.70312 6.1875-0.70312 6.3906 0 10.438 1.875 4.0625 1.8594 6.3594 5.2812 2.2969 3.4062 3.0938 8.1094 0.79688 4.6875 0.79688 10.234v31.141h-9.9219v-29.016q0-4.9062-0.48438-8.4219-0.46875-3.5156-1.8125-5.8594-1.3281-2.3594-3.625-3.4688-2.2812-1.125-5.9062-1.125-5.0156 0-8.2812 1.3438-3.25 1.3281-4.4219 2.3906 0.85938 2.7812 1.2812 6.0938 0.42188 3.2969 0.42188 6.9219v31.141h-9.9062v-29.016q0-4.9062-0.54688-8.4219-0.53125-3.5156-1.8594-5.8594-1.3281-2.3594-3.625-3.4688-2.2969-1.125-5.8125-1.125-1.5 0-3.2031 0.10938t-3.25 0.26562-2.8281 0.375-1.7031 0.3125v46.828h-9.9219v-53.859zm91.831 0q3.4219-0.85938 9.0156-1.8125 5.5938-0.96875 12.953-0.96875 5.3438 0 8.9688 1.4531 3.625 1.4375 6.0781 4.2031 0.73438-0.53125 2.3281-1.4844 1.6094-0.96875 3.9531-1.875 2.3594-0.90625 5.2344-1.5938 2.875-0.70312 6.1875-0.70312 6.3906 0 10.438 1.875 4.0625 1.8594 6.3594 5.2812 2.2969 3.4062 3.0938 8.1094 0.79688 4.6875 0.79688 10.234v31.141h-9.9219v-29.016q0-4.9062-0.48438-8.4219-0.46875-3.5156-1.8125-5.8594-1.3281-2.3594-3.625-3.4688-2.2812-1.125-5.9062-1.125-5.0156 0-8.2812 1.3438-3.25 1.3281-4.4219 2.3906 0.85938 2.7812 1.2812 6.0938 0.42188 3.2969 0.42188 6.9219v31.141h-9.9062v-29.016q0-4.9062-0.54688-8.4219-0.53125-3.5156-1.8594-5.8594-1.3281-2.3594-3.625-3.4688-2.2969-1.125-5.8125-1.125-1.5 0-3.2031 0.10938t-3.25 0.26562-2.8281 0.375-1.7031 0.3125v46.828h-9.9219v-53.859zm110.6 46.719q3.5312 0 6.25-0.15625 2.7188-0.17188 4.5312-0.59375v-16.531q-1.0625-0.53125-3.4688-0.90625t-5.8125-0.375q-2.2344 0-4.75 0.32812-2.5 0.3125-4.5781 1.3281t-3.4688 2.7812q-1.3906 1.75-1.3906 4.625 0 5.3281 3.4062 7.4219 3.4219 2.0781 9.2812 2.0781zm-0.84375-49.703q5.9688 0 10.078 1.5469t6.6094 4.375q2.5156 2.8125 3.5781 6.7188 1.0625 3.8906 1.0625 8.5781v34.672q-1.2812 0.20312-3.5781 0.57812-2.2812 0.375-5.1719 0.6875-2.875 0.32812-6.2344 0.59375t-6.6719 0.26562q-4.6875 0-8.6406-0.96875-3.9375-0.95312-6.8281-3.0312-2.875-2.0781-4.4688-5.4844-1.5938-3.4219-1.5938-8.2188 0-4.5938 1.8594-7.8906 1.8594-3.3125 5.0625-5.3281 3.2031-2.0312 7.4688-2.9844 4.2656-0.96875 8.9531-0.96875 1.5 0 3.0938 0.15625 1.6094 0.15625 3.0469 0.4375 1.4375 0.26562 2.5 0.48438 1.0781 0.20312 1.5 0.3125v-2.7812q0-2.4531-0.53125-4.8438-0.53125-2.4062-1.9219-4.2656-1.3906-1.875-3.7969-2.9844-2.3906-1.125-6.2344-1.125-4.9062 0-8.5938 0.70312-3.6719 0.6875-5.4844 1.4219l-1.1719-8.2031q1.9219-0.85938 6.3906-1.6562 4.4844-0.79688 9.7188-0.79688zm37.752 2.9844q3.4219-0.85938 9.0625-1.8125 5.6562-0.96875 13.016-0.96875 6.6094 0 10.984 1.875 4.375 1.8594 6.9844 5.2188t3.6719 8.0625q1.0781 4.6875 1.0781 10.344v31.141h-9.9219v-29.016q0-5.1094-0.70312-8.7344-0.6875-3.625-2.2812-5.8594-1.5938-2.25-4.2656-3.2656t-6.6094-1.0156q-1.6094 0-3.3125 0.10938t-3.25 0.26562-2.7812 0.375q-1.2188 0.21875-1.75 0.3125v46.828h-9.9219v-53.859zm97.064 10.125q-1.8125-1.4844-5.2344-2.875-3.4062-1.3906-7.4688-1.3906-4.2656 0-7.3125 1.5469-3.0312 1.5469-4.9531 4.2656t-2.7812 6.4531q-0.84375 3.7344-0.84375 8 0 9.7031 4.7969 14.984 4.8125 5.2812 12.812 5.2812 4.0469 0 6.7656-0.375t4.2188-0.79688v-35.094zm0-37.328 9.9062-1.7031v81.172q-3.4062 0.95312-8.75 1.9062-5.3281 0.96875-12.25 0.96875-6.4062 0-11.531-2.0156-5.1094-2.0312-8.7344-5.7656t-5.6094-9.125q-1.9688-5.3906-1.9688-12.109 0-6.3906 1.6562-11.719 1.6562-5.3438 4.8438-9.1719 3.2031-3.8438 7.8438-5.9688 4.6406-2.1406 10.609-2.1406 4.8125 0 8.4844 1.2812 3.6875 1.2656 5.5 2.4375v-28.047z" fill="#000"/>
<path d="m4490.5 662.4q0 9.6094-2.9844 16.703t-8.4219 11.734q-5.4375 4.625-13.016 6.9219t-16.641 2.2969q-4.4844 0-9.875-0.375-5.375-0.375-9.75-1.4375v-71.672q4.375-1.0625 9.75-1.4375 5.3906-0.375 9.875-0.375 9.0625 0 16.641 2.2969 7.5781 2.2812 13.016 6.9219t8.4219 11.734 2.9844 16.688zm-40.203 28.594q14.719 0 21.969-7.5156 7.25-7.5312 7.25-21.078t-7.25-21.062-21.969-7.5156q-4.375 0-6.7812 0.10938-2.3906 0.10938-3.3594 0.20312v56.531q0.96875 0.10938 3.3594 0.21875 2.4062 0.10938 6.7812 0.10938zm72.193 1.2812q3.5312 0 6.25-0.15625 2.7188-0.17188 4.5312-0.59375v-16.531q-1.0625-0.53125-3.4688-0.90625t-5.8125-0.375q-2.2344 0-4.75 0.32812-2.5 0.3125-4.5781 1.3281t-3.4688 2.7812q-1.3906 1.75-1.3906 4.625 0 5.3281 3.4062 7.4219 3.4219 2.0781 9.2812 2.0781zm-0.84375-49.703q5.9688 0 10.078 1.5469t6.6094 4.375q2.5156 2.8125 3.5781 6.7188 1.0625 3.8906 1.0625 8.5781v34.672q-1.2812 0.20312-3.5781 0.57812-2.2812 0.375-5.1719 0.6875-2.875 0.32812-6.2344 0.59375t-6.6719 0.26562q-4.6875 0-8.6406-0.96875-3.9375-0.95312-6.8281-3.0312-2.875-2.0781-4.4688-5.4844-1.5938-3.4219-1.5938-8.2188 0-4.5938 1.8594-7.8906 1.8594-3.3125 5.0625-5.3281 3.2031-2.0312 7.4688-2.9844 4.2656-0.96875 8.9531-0.96875 1.5 0 3.0938 0.15625 1.6094 0.15625 3.0469 0.4375 1.4375 0.26562 2.5 0.48438 1.0781 0.20312 1.5 0.3125v-2.7812q0-2.4531-0.53125-4.8438-0.53125-2.4062-1.9219-4.2656-1.3906-1.875-3.7969-2.9844-2.3906-1.125-6.2344-1.125-4.9062 0-8.5938 0.70312-3.6719 0.6875-5.4844 1.4219l-1.1719-8.2031q1.9219-0.85938 6.3906-1.6562 4.4844-0.79688 9.7188-0.79688zm47.034 1.375h21.016v8.3281h-21.016v25.594q0 4.1562 0.64062 6.875t1.9219 4.2656 3.1875 2.1875q1.9219 0.64062 4.4844 0.64062 4.4844 0 7.2031-1 2.7188-1.0156 3.7812-1.4531l1.9219 8.2188q-1.4844 0.75-5.2188 1.8594-3.7344 1.125-8.5312 1.125-5.6562 0-9.3438-1.4375-3.6719-1.4375-5.9219-4.3125-2.2344-2.8906-3.1406-7.0938-0.90625-4.2188-0.90625-9.7656v-49.484l9.9219-1.7188v17.172zm52.36 48.328q3.5312 0 6.25-0.15625 2.7188-0.17188 4.5312-0.59375v-16.531q-1.0625-0.53125-3.4688-0.90625t-5.8125-0.375q-2.2344 0-4.75 0.32812-2.5 0.3125-4.5781 1.3281t-3.4688 2.7812q-1.3906 1.75-1.3906 4.625 0 5.3281 3.4062 7.4219 3.4219 2.0781 9.2812 2.0781zm-0.84375-49.703q5.9688 0 10.078 1.5469t6.6094 4.375q2.5156 2.8125 3.5781 6.7188 1.0625 3.8906 1.0625 8.5781v34.672q-1.2812 0.20312-3.5781 0.57812-2.2812 0.375-5.1719 0.6875-2.875 0.32812-6.2344 0.59375t-6.6719 0.26562q-4.6875 0-8.6406-0.96875-3.9375-0.95312-6.8281-3.0312-2.875-2.0781-4.4688-5.4844-1.5938-3.4219-1.5938-8.2188 0-4.5938 1.8594-7.8906 1.8594-3.3125 5.0625-5.3281 3.2031-2.0312 7.4688-2.9844 4.2656-0.96875 8.9531-0.96875 1.5 0 3.0938 0.15625 1.6094 0.15625 3.0469 0.4375 1.4375 0.26562 2.5 0.48438 1.0781 0.20312 1.5 0.3125v-2.7812q0-2.4531-0.53125-4.8438-0.53125-2.4062-1.9219-4.2656-1.3906-1.875-3.7969-2.9844-2.3906-1.125-6.2344-1.125-4.9062 0-8.5938 0.70312-3.6719 0.6875-5.4844 1.4219l-1.1719-8.2031q1.9219-0.85938 6.3906-1.6562 4.4844-0.79688 9.7188-0.79688z" fill="#000"/>
<path d="m1578.2 2446h614.83v308.72h-614.83z" fill="#000" fill-opacity="0" fill-rule="evenodd"/>
<path d="m1719.5 2572.3q-2.5312 0-5.4688-0.125-2.9375-0.10938-5.875-0.35938-2.9375-0.23438-5.8281-0.59375-2.875-0.35938-5.2812-0.95312v-80.641q2.4062-0.60938 5.2812-0.96875 2.8906-0.35938 5.8281-0.59375 2.9375-0.25 5.8125-0.35938 2.8906-0.125 5.4062-0.125 7.2031 0 13.5 1.0781t10.922 3.6562 7.25 6.7812q2.6406 4.2031 2.6406 10.328 0 6.8438-3.2344 11.219t-8.6406 6.5312q7.3281 2.1719 11.641 6.8594 4.3281 4.6719 4.3281 13.188 0 12.484-9.1875 18.781-9.1719 6.2969-29.094 6.2969zm-10.922-39.484v29.281q1.3125 0.125 3.1094 0.25 1.5625 0.10938 3.6562 0.17188 2.1094 0.0625 4.875 0.0625 5.1562 0 9.7656-0.65625 4.625-0.65625 8.1094-2.3438t5.5781-4.6875q2.1094-3 2.1094-7.5469 0-4.0781-1.5625-6.8906-1.5625-2.8281-4.5-4.5-2.9375-1.6875-7.0312-2.4062-4.0781-0.73438-9.1094-0.73438h-15zm0-9.3594h12.234q4.3281 0 8.1562-0.59375 3.8438-0.59375 6.6562-2.1562 2.8281-1.5625 4.4375-4.0781 1.625-2.5312 1.625-6.3594 0-3.6094-1.6875-6.0625-1.6719-2.4688-4.6094-3.9688t-6.9062-2.2188q-3.9531-0.71875-8.3906-0.71875t-6.9688 0.125q-2.5156 0.10938-4.5469 0.35938v25.672zm86.035 40.078q3.9688 0 7.0156-0.17188 3.0625-0.1875 5.1094-0.65625v-18.609q-1.2031-0.59375-3.9062-1.0156t-6.5312-0.42188q-2.5312 0-5.3594 0.35938-2.8125 0.35938-5.1562 1.5-2.3281 1.1406-3.8906 3.125t-1.5625 5.2188q0 6 3.8438 8.3438 3.8438 2.3281 10.438 2.3281zm-0.95312-55.906q6.7188 0 11.328 1.7344 4.625 1.7344 7.4375 4.9219 2.8281 3.1719 4.0312 7.5625 1.2031 4.375 1.2031 9.6562v39q-1.4531 0.23438-4.0312 0.65625t-5.8125 0.78125-7.0156 0.65625-7.5 0.29688q-5.2812 0-9.7344-1.0781-4.4375-1.0781-7.6719-3.4062-3.2344-2.3438-5.0469-6.1875-1.7969-3.8438-1.7969-9.2344 0-5.1719 2.0938-8.8906 2.1094-3.7188 5.7031-6 3.6094-2.2812 8.4062-3.3594t10.078-1.0781q1.6875 0 3.4844 0.1875 1.7969 0.17188 3.4062 0.48438 1.625 0.29688 2.8281 0.53125t1.6875 0.35938v-3.125q0-2.75-0.60938-5.4531-0.59375-2.7031-2.1562-4.7969-1.5625-2.1094-4.2656-3.3594-2.6875-1.2656-7.0156-1.2656-5.5156 0-9.6562 0.78125t-6.1875 1.625l-1.3125-9.25q2.1562-0.95312 7.1875-1.8438 5.0469-0.90625 10.938-0.90625zm69.593 65.391q-7.5625 0-13.266-2.3906-5.6875-2.4062-9.5938-6.7188-3.9062-4.3281-5.8281-10.266-1.9062-5.9375-1.9062-13.141t2.0938-13.203 5.9375-10.375q3.8438-4.3906 9.4219-6.8438t12.422-2.4531q4.2031 0 8.3906 0.71875 4.2031 0.71875 8.0469 2.2812l-2.5156 9.4688q-2.5156-1.2031-5.8281-1.9219-3.2969-0.71875-7.0156-0.71875-9.3594 0-14.344 5.8906-4.9688 5.875-4.9688 17.156 0 5.0312 1.1406 9.2344t3.5938 7.2031 6.2969 4.625q3.8438 1.6094 9.3594 1.6094 4.4375 0 8.0312-0.82812 3.6094-0.84375 5.6562-1.8125l1.5625 9.3594q-0.96875 0.60938-2.7656 1.1562-1.7969 0.53125-4.0781 0.95312t-4.8594 0.71875-4.9844 0.29688zm51.237-35.75q3.6094 2.75 7.625 6.8281t7.9062 8.8281q3.9062 4.7344 7.3906 9.5938t5.875 9.0625h-13.078q-2.5156-4.2031-5.8125-8.5781t-6.9062-8.3906q-3.5938-4.0312-7.3125-7.3906t-7.0781-5.6406v30h-11.172v-91.203l11.172-1.9219v56.891q2.875-2.8906 6.3438-6.3594 3.4844-3.4844 6.8438-7.0781 3.3594-3.6094 6.3594-6.9062t5.1719-5.8281h13.078q-2.7656 3-6.0156 6.6094-3.2344 3.5938-6.7188 7.2656-3.4688 3.6562-7.0156 7.3125-3.5312 3.6562-6.6562 6.9062zm89.765 32.516q-3.8438 0.95312-10.141 2.0312t-14.578 1.0781q-7.2031 0-12.125-2.0938t-7.9219-5.9375-4.3281-9.0625q-1.3125-5.2188-1.3125-11.578v-35.047h11.172v32.641q0 11.406 3.5938 16.328t12.125 4.9219q1.7969 0 3.7188-0.125t3.5938-0.29688q1.6875-0.1875 3.0625-0.35938 1.375-0.1875 1.9844-0.42188v-52.688h11.156v60.609zm62.521-29.281q0-10.922-5.4062-16.797-5.3906-5.8906-14.391-5.8906-5.0469 0-7.875 0.35938-2.8125 0.35938-4.4844 0.84375v39.359q2.0312 1.6875 5.875 3.25 3.8438 1.5469 8.4061 1.5469 4.7969 0 8.2188-1.7344t5.5781-4.7969 3.1094-7.2031q0.96875-4.1406 0.96875-8.9375zm11.641 0q0 7.0781-1.8594 13.078t-5.4688 10.328q-3.5938 4.3125-8.8125 6.7188-5.2188 2.3906-11.938 2.3906-5.4061 0-9.5468-1.4375t-6.1719-2.7656v24.969h-11.172v-82.687q3.9688-0.95312 9.9062-2.0938t13.734-1.1406q7.203 0 12.953 2.2812 5.7656 2.2812 9.8438 6.4844 4.0938 4.1875 6.3125 10.25t2.2188 13.625z" fill="#000"/>
<path d="m1736.7 2717.3q-8.7656 0-15.969-2.875-7.1875-2.875-12.359-8.3906-5.1562-5.5312-7.9844-13.625-2.8125-8.1094-2.8125-18.547t3.1719-18.531q3.1875-8.1094 8.5938-13.625t12.594-8.3906q7.2031-2.8906 15.375-2.8906 5.1562 0 9.2969 0.71875t7.1875 1.6875q3.0625 0.95312 4.9844 1.9219 1.9219 0.95312 2.6406 1.4375l-3.3594 9.5938q-1.0781-0.71875-3.125-1.5625-2.0312-0.84375-4.6094-1.6719-2.5781-0.84375-5.6406-1.375-3.0625-0.54688-6.1875-0.54688-6.5938 0-11.875 2.2812t-9 6.5938-5.7031 10.5-1.9844 13.859q0 7.4375 1.7344 13.562 1.75 6.125 5.2344 10.5t8.7031 6.7812q5.2188 2.3906 12.172 2.3906 8.0469 0 13.328-1.6719 5.2812-1.6875 7.9219-3l3 9.5938q-0.84375 0.60938-3.0156 1.5156-2.1562 0.89062-5.3906 1.7344-3.2344 0.82812-7.5625 1.4219-4.3125 0.60938-9.3594 0.60938zm56.634-0.59375q-10.312-0.25-14.641-4.4375-4.3125-4.2031-4.3125-13.078v-74.891l11.156-1.9219v75q0 2.7656 0.48438 4.5625t1.5625 2.8906q1.0781 1.0781 2.875 1.625 1.7969 0.53125 4.4375 0.89062l-1.5625 9.3594zm63.729-3q-3.8438 0.95312-10.141 2.0312t-14.578 1.0781q-7.2031 0-12.125-2.0938t-7.9219-5.9375-4.3281-9.0625q-1.3125-5.2188-1.3125-11.578v-35.047h11.172v32.641q0 11.406 3.5938 16.328t12.125 4.9219q1.7969 0 3.7188-0.125t3.5938-0.29688q1.6875-0.1875 3.0625-0.35938 1.375-0.1875 1.9844-0.42188v-52.688h11.156v60.609zm33.724-6.25q6.8281 0 10.125-1.7969 3.3125-1.7969 3.3125-5.75 0-4.0938-3.25-6.4844-3.2344-2.4062-10.672-5.4062-3.5938-1.4375-6.9062-2.9375-3.2969-1.5-5.7031-3.5312-2.3906-2.0469-3.8281-4.9219-1.4375-2.8906-1.4375-7.0781 0-8.2812 6.1094-13.141 6.125-4.8594 16.688-4.8594 2.6406 0 5.2812 0.29688t4.9219 0.71875 4.0156 0.90625q1.7344 0.46875 2.7031 0.82812l-2.0469 9.6094q-1.7969-0.96875-5.6406-1.9844t-9.2344-1.0156q-4.6875 0-8.1719 1.8594-3.4688 1.8594-3.4688 5.8125 0 2.0469 0.78125 3.6094 0.78125 1.5469 2.3906 2.8125 1.625 1.2656 4.0156 2.3438 2.4062 1.0781 5.7656 2.2812 4.4375 1.6719 7.9219 3.2969t5.9375 3.7812q2.4688 2.1562 3.7812 5.2188 1.3281 3.0625 1.3281 7.5 0 8.6406-6.4219 13.078t-18.297 4.4375q-8.2812 0-12.969-1.375-4.6719-1.375-6.3594-2.1094l2.0469-9.5938q1.9219 0.71875 6.1094 2.1562 4.2031 1.4375 11.172 1.4375zm49.442-54.359h23.641v9.3594h-23.641v28.812q0 4.6719 0.71875 7.7344t2.1562 4.8125q1.4375 1.7344 3.5938 2.4531 2.1719 0.71875 5.0469 0.71875 5.0312 0 8.0938-1.1406t4.2656-1.625l2.1562 9.2344q-1.6719 0.84375-5.875 2.0938-4.2031 1.2656-9.6094 1.2656-6.3594 0-10.5-1.6094-4.1406-1.625-6.6562-4.8594-2.5156-3.25-3.5469-7.9844-1.0156-4.7344-1.0156-10.984v-55.672l11.172-1.9219v19.312zm33.118 31.328q0-8.2812 2.3906-14.453 2.4062-6.1875 6.3594-10.266 3.9688-4.0781 9.125-6.1094 5.1562-2.0469 10.562-2.0469 12.594 0 19.312 7.8594t6.7188 23.938q0 0.71875 0 1.8594t-0.10938 2.0938h-42.719q0.71875 9.7188 5.625 14.766 4.9219 5.0312 15.375 5.0312 5.875 0 9.8906-1.0156 4.0312-1.0156 6.0625-1.9844l1.5625 9.3594q-2.0469 1.0938-7.1406 2.2812-5.0938 1.2031-11.578 1.2031-8.1562 0-14.109-2.4531-5.9375-2.4688-9.7812-6.7812-3.8281-4.3281-5.6875-10.266t-1.8594-13.016zm42.828-6.125q0.125-7.5625-3.7812-12.422-3.8906-4.8594-10.734-4.8594-3.8438 0-6.7812 1.5t-4.9844 3.9062q-2.0312 2.3906-3.1719 5.5156t-1.5 6.3594h30.953zm50.768-26.516q1.4375 0 3.2969 0.1875 1.8594 0.17188 3.6562 0.46875 1.8125 0.29688 3.3125 0.60938 1.5 0.29688 2.2188 0.53125l-1.9219 9.7188q-1.3281-0.48438-4.3906-1.1406-3.0469-0.65625-7.8594-0.65625-3.1094 0-6.1719 0.65625t-4.0156 0.90625v52.438h-11.172v-59.766q3.9688-1.4375 9.8439-2.6875 5.875-1.2656 13.203-1.2656z" fill="#000"/>
<path d="m3868.4 644.95 461.1-5.3228" fill="#000" fill-opacity="0" fill-rule="evenodd"/>
<path d="m3868.4 644.95 413.11-4.7687" fill-rule="evenodd" stroke="#000" stroke-linecap="butt" stroke-linejoin="round" stroke-width="8"/>
<path d="m4281.7 653.39 36.15-13.632-36.455-12.794z" fill="#000" fill-rule="evenodd" stroke="#000" stroke-linecap="butt" stroke-width="8"/>
<path d="m133.27 2317.9h649.07v449.32h-649.07z" fill="#cfe2f3" fill-rule="evenodd"/>
<path d="m133.27 2317.9h649.07v449.32h-649.07z" fill-rule="evenodd" stroke="#000" stroke-linecap="butt" stroke-linejoin="round"/>
<path d="m343.38 2609.5v-132.66h50.047q13.203 0 20.172 1.2656 9.7812 1.625 16.375 6.2031 6.6094 4.5625 10.641 12.797t4.0312 18.094q0 16.922-10.781 28.641-10.766 11.719-38.906 11.719h-34.016v53.938h-17.562zm17.562-69.594h34.297q17 0 24.141-6.3281 7.1562-6.3281 7.1562-17.828 0-8.3281-4.2031-14.25-4.2031-5.9375-11.078-7.8281-4.4375-1.1719-16.391-1.1719h-33.922v47.406zm106.05 69.594v-132.66h45.703q15.469 0 23.609 1.8906 11.406 2.625 19.469 9.5 10.484 8.875 15.688 22.672t5.2031 31.531q0 15.125-3.5312 26.797-3.5156 11.672-9.0469 19.328-5.5156 7.6406-12.078 12.031-6.5625 4.375-15.844 6.6406-9.2656 2.2656-21.297 2.2656h-47.875zm17.562-15.656h28.312q13.125 0 20.594-2.4375 7.4688-2.4531 11.906-6.875 6.2344-6.25 9.7188-16.781 3.4844-10.547 3.4844-25.578 0-20.812-6.8281-31.984t-16.609-14.984q-7.0625-2.7031-22.719-2.7031h-27.859v101.34z" fill="#000"/>
<path d="m133.27 1877.8h649.07v449.32h-649.07z" fill="#cfe2f3" fill-rule="evenodd"/>
<path d="m133.27 1877.8h649.07v449.32h-649.07z" fill-rule="evenodd" stroke="#000" stroke-linecap="butt" stroke-linejoin="round"/>
<path d="m303.38 2169.4v-117h-43.703v-15.656h105.16v15.656h-43.891v117h-17.562zm70.594-113.94v-18.719h16.281v18.719h-16.281zm0 113.94v-96.109h16.281v96.109h-16.281zm43.158 0v-132.66h45.703q15.469 0 23.609 1.8906 11.406 2.625 19.469 9.5001 10.484 8.875 15.688 22.672t5.2031 31.531q0 15.125-3.5312 26.797-3.5156 11.672-9.0469 19.328-5.5156 7.6406-12.078 12.031-6.5625 4.375-15.844 6.6406-9.2656 2.2656-21.297 2.2656h-47.875zm17.562-15.656h28.312q13.125 0 20.594-2.4375 7.4688-2.4531 11.906-6.875 6.2344-6.25 9.7188-16.781 3.4844-10.547 3.4844-25.578 0-20.812-6.8281-31.984t-16.609-14.984q-7.0625-2.7031-22.719-2.7031h-27.859v101.34zm115.56 15.656v-132.66h49.766q15.203 0 24.391 4.0312 9.1875 4.0156 14.391 12.391 5.2031 8.375 5.2031 17.5 0 8.5156-4.625 16.031-4.6094 7.5-13.938 12.125 12.047 3.5156 18.516 12.031 6.4688 8.5 6.4688 20.094 0 9.3125-3.9375 17.328-3.9375 8-9.7344 12.344-5.7812 4.3438-14.516 6.5625t-21.406 2.2188h-50.578zm17.547-76.922h28.688q11.672 0 16.75-1.5312 6.6875-2 10.078-6.6094 3.4062-4.6094 3.4062-11.578 0-6.6094-3.1719-11.625-3.1719-5.0312-9.0625-6.875-5.875-1.8594-20.172-1.8594h-26.516v40.078zm0 61.266h33.031q8.5156 0 11.953-0.625 6.0625-1.0938 10.125-3.625 4.0781-2.5312 6.7031-7.375t2.625-11.172q0-7.4219-3.8125-12.891-3.7969-5.4844-10.547-7.7031-6.7344-2.2188-19.391-2.2188h-30.688v45.609z" fill="#000"/>
<path d="m3162.1 2443.2h706.3v308.72h-706.3z" fill="#000" fill-opacity="0" fill-rule="evenodd"/>
<path d="m3352.9 2534q1.9219 2.3906 4.8594 6.2969t6.0625 8.6406 6.1719 9.9062q3.0625 5.1562 5.2188 9.9531h-12.719q-2.3906-4.5625-5.2188-9.2344-2.8125-4.6875-5.7031-8.9375-2.875-4.2656-5.7031-7.9844-2.8125-3.7188-5.0938-6.4844-1.5625 0.125-3.1875 0.125-1.6094 0-3.2812 0h-10.453v32.516h-11.641v-81.953q4.9219-1.2031 10.984-1.625t11.109-0.42188q17.516 0 26.688 6.6094 9.1875 6.5938 9.1875 19.672 0 8.2812-4.3906 14.156-4.375 5.875-12.891 8.7656zm-17.641-39q-7.4375 0-11.406 0.35938v31.312h8.2812q6 0 10.797-0.59375 4.8125-0.59375 8.1094-2.2812t5.0938-4.7344q1.8125-3.0625 1.8125-8.1094 0-4.6719-1.8125-7.7969-1.7969-3.125-4.8594-4.9219t-7.2031-2.5156q-4.125-0.71875-8.8125-0.71875zm48.246 42.719q0-8.2812 2.3906-14.453 2.4062-6.1875 6.3594-10.266 3.9688-4.0781 9.125-6.1094 5.1562-2.0469 10.562-2.0469 12.594 0 19.312 7.8594t6.7188 23.938q0 0.71875 0 1.8594t-0.10938 2.0938h-42.719q0.71875 9.7188 5.625 14.766 4.9219 5.0312 15.375 5.0312 5.875 0 9.8906-1.0156 4.0312-1.0156 6.0625-1.9844l1.5625 9.3594q-2.0469 1.0938-7.1406 2.2812-5.0938 1.2031-11.578 1.2031-8.1562 0-14.109-2.4531-5.9375-2.4688-9.7812-6.7812-3.8281-4.3281-5.6875-10.266t-1.8594-13.016zm42.828-6.125q0.125-7.5625-3.7812-12.422-3.8906-4.8594-10.734-4.8594-3.8438 0-6.7812 1.5t-4.9844 3.9062q-2.0312 2.3906-3.1719 5.5156t-1.5 6.3594h30.953zm42.252 29.156q6.8281 0 10.125-1.7969 3.3125-1.7969 3.3125-5.75 0-4.0938-3.25-6.4844-3.2344-2.4062-10.672-5.4062-3.5938-1.4375-6.9062-2.9375-3.2969-1.5-5.7031-3.5312-2.3906-2.0469-3.8281-4.9219-1.4375-2.8906-1.4375-7.0781 0-8.2812 6.1094-13.141 6.125-4.8594 16.688-4.8594 2.6406 0 5.2812 0.29688t4.9219 0.71875 4.0156 0.90625q1.7344 0.46875 2.7031 0.82812l-2.0469 9.6094q-1.7969-0.96875-5.6406-1.9844t-9.2344-1.0156q-4.6875 0-8.1719 1.8594-3.4688 1.8594-3.4688 5.8125 0 2.0469 0.78125 3.6094 0.78125 1.5469 2.3906 2.8125 1.625 1.2656 4.0156 2.3438 2.4062 1.0781 5.7656 2.2812 4.4375 1.6719 7.9219 3.2969t5.9375 3.7812q2.4688 2.1562 3.7812 5.2188 1.3281 3.0625 1.3281 7.5 0 8.6406-6.4219 13.078t-18.297 4.4375q-8.2812 0-12.969-1.375-4.6719-1.375-6.3594-2.1094l2.0469-9.5938q1.9219 0.71875 6.1094 2.1562 4.2031 1.4375 11.172 1.4375zm49.442-54.359h23.641v9.3594h-23.641v28.812q0 4.6719 0.71875 7.7344t2.1562 4.8125q1.4375 1.7344 3.5938 2.4531 2.1719 0.71875 5.0469 0.71875 5.0312 0 8.0938-1.1406t4.2656-1.625l2.1562 9.2344q-1.6719 0.84375-5.875 2.0938-4.2031 1.2656-9.6094 1.2656-6.3594 0-10.5-1.6094-4.1406-1.625-6.6562-4.8594-2.5156-3.25-3.5469-7.9844-1.0156-4.7344-1.0156-10.984v-55.672l11.172-1.9219v19.312zm91.201 31.203q0 7.4375-2.1719 13.438-2.1562 6-6.0625 10.328-3.8906 4.3125-9.2969 6.6562-5.3906 2.3438-11.75 2.3438t-11.766-2.3438-9.3125-6.6562q-3.8906-4.3281-6.0469-10.328t-2.1562-13.438q0-7.3125 2.1562-13.375t6.0469-10.375q3.9062-4.3281 9.3125-6.6562 5.4062-2.3438 11.766-2.3438t11.75 2.3438q5.4062 2.3281 9.2969 6.6562 3.9062 4.3125 6.0625 10.375 2.1719 6.0625 2.1719 13.375zm-11.641 0q0-10.562-4.75-16.734-4.7344-6.1875-12.891-6.1875-8.1719 0-12.906 6.1875-4.7344 6.1719-4.7344 16.734t4.7344 16.75q4.7344 6.1719 12.906 6.1719 8.1562 0 12.891-6.1719 4.75-6.1875 4.75-16.75zm50.394-32.516q1.4375 0 3.2969 0.1875 1.8594 0.17188 3.6562 0.46875 1.8125 0.29688 3.3125 0.60938 1.5 0.29688 2.2188 0.53125l-1.9219 9.7188q-1.3281-0.48438-4.3906-1.1406-3.0469-0.65625-7.8594-0.65625-3.1094 0-6.1719 0.65625t-4.0156 0.90625v52.438h-11.172v-59.766q3.9688-1.4375 9.8438-2.6875 5.875-1.2656 13.203-1.2656zm19.804 32.641q0-8.2812 2.3906-14.453 2.4062-6.1875 6.3594-10.266 3.9688-4.0781 9.125-6.1094 5.1562-2.0469 10.562-2.0469 12.594 0 19.312 7.8594t6.7188 23.938q0 0.71875 0 1.8594t-0.10938 2.0938h-42.719q0.71875 9.7188 5.625 14.766 4.9219 5.0312 15.375 5.0312 5.875 0 9.8906-1.0156 4.0312-1.0156 6.0625-1.9844l1.5625 9.3594q-2.0469 1.0938-7.1406 2.2812-5.0938 1.2031-11.578 1.2031-8.1562 0-14.109-2.4531-5.9375-2.4688-9.7812-6.7812-3.8281-4.3281-5.6875-10.266t-1.8594-13.016zm42.828-6.125q0.125-7.5625-3.7812-12.422-3.8906-4.8594-10.734-4.8594-3.8438 0-6.7812 1.5t-4.9844 3.9062q-2.0312 2.3906-3.1719 5.5156t-1.5 6.3594h30.953z" fill="#000"/>
<path d="m3366.4 2714.6q-8.7656 0-15.969-2.875-7.1875-2.875-12.359-8.3906-5.1562-5.5312-7.9844-13.625-2.8125-8.1094-2.8125-18.547t3.1719-18.531q3.1875-8.1094 8.5938-13.625t12.594-8.3906q7.2031-2.8906 15.375-2.8906 5.1562 0 9.2969 0.71875t7.1875 1.6875q3.0625 0.95312 4.9844 1.9219 1.9219 0.95312 2.6406 1.4375l-3.3594 9.5938q-1.0781-0.71875-3.125-1.5625-2.0312-0.84375-4.6094-1.6719-2.5781-0.84375-5.6406-1.375-3.0625-0.54688-6.1875-0.54688-6.5938 0-11.875 2.2812t-9 6.5938-5.7031 10.5-1.9844 13.859q0 7.4375 1.7344 13.562 1.75 6.125 5.2344 10.5t8.7031 6.7812q5.2188 2.3906 12.172 2.3906 8.0469 0 13.328-1.6719 5.2812-1.6875 7.9219-3l3 9.5938q-0.84375 0.60938-3.0156 1.5156-2.1562 0.89062-5.3906 1.7344-3.2344 0.82812-7.5625 1.4219-4.3125 0.60938-9.3594 0.60938zm56.634-0.59375q-10.312-0.25-14.641-4.4375-4.3125-4.2031-4.3125-13.078v-74.891l11.156-1.9219v75q0 2.7656 0.48438 4.5625t1.5625 2.8906q1.0781 1.0781 2.875 1.625 1.7969 0.53125 4.4375 0.89062l-1.5625 9.3594zm63.729-3q-3.8438 0.95312-10.141 2.0312t-14.578 1.0781q-7.2031 0-12.125-2.0938t-7.9219-5.9375-4.3281-9.0625q-1.3125-5.2188-1.3125-11.578v-35.047h11.172v32.641q0 11.406 3.5938 16.328t12.125 4.9219q1.7969 0 3.7188-0.125t3.5938-0.29688q1.6875-0.1875 3.0625-0.35938 1.375-0.1875 1.9844-0.42188v-52.688h11.156v60.609zm33.724-6.25q6.8281 0 10.125-1.7969 3.3125-1.7969 3.3125-5.75 0-4.0938-3.25-6.4844-3.2344-2.4062-10.672-5.4062-3.5938-1.4375-6.9062-2.9375-3.2969-1.5-5.7031-3.5312-2.3906-2.0469-3.8281-4.9219-1.4375-2.8906-1.4375-7.0781 0-8.2812 6.1094-13.141 6.125-4.8594 16.688-4.8594 2.6406 0 5.2812 0.29688t4.9219 0.71875 4.0156 0.90625q1.7344 0.46875 2.7031 0.82812l-2.0469 9.6094q-1.7969-0.96875-5.6406-1.9844t-9.2344-1.0156q-4.6875 0-8.1719 1.8594-3.4688 1.8594-3.4688 5.8125 0 2.0469 0.78125 3.6094 0.78125 1.5469 2.3906 2.8125 1.625 1.2656 4.0156 2.3438 2.4062 1.0781 5.7656 2.2812 4.4375 1.6719 7.9219 3.2969t5.9375 3.7812q2.4688 2.1562 3.7812 5.2188 1.3281 3.0625 1.3281 7.5 0 8.6406-6.4219 13.078t-18.297 4.4375q-8.2812 0-12.969-1.375-4.6719-1.375-6.3594-2.1094l2.0469-9.5938q1.9219 0.71875 6.1094 2.1562 4.2031 1.4375 11.172 1.4375zm49.442-54.359h23.641v9.3594h-23.641v28.812q0 4.6719 0.71875 7.7344t2.1562 4.8125q1.4375 1.7344 3.5938 2.4531 2.1719 0.71875 5.0469 0.71875 5.0312 0 8.0938-1.1406t4.2656-1.625l2.1562 9.2344q-1.6719 0.84375-5.875 2.0938-4.2031 1.2656-9.6094 1.2656-6.3594 0-10.5-1.6094-4.1406-1.625-6.6562-4.8594-2.5156-3.25-3.5469-7.9844-1.0156-4.7344-1.0156-10.984v-55.672l11.172-1.9219v19.312zm33.118 31.328q0-8.2812 2.3906-14.453 2.4062-6.1875 6.3594-10.266 3.9688-4.0781 9.125-6.1094 5.1562-2.0469 10.562-2.0469 12.594 0 19.312 7.8594t6.7188 23.938q0 0.71875 0 1.8594t-0.10938 2.0938h-42.719q0.71875 9.7188 5.625 14.766 4.9219 5.0312 15.375 5.0312 5.875 0 9.8906-1.0156 4.0312-1.0156 6.0625-1.9844l1.5625 9.3594q-2.0469 1.0938-7.1406 2.2812-5.0938 1.2031-11.578 1.2031-8.1562 0-14.109-2.4531-5.9375-2.4688-9.7812-6.7812-3.8281-4.3281-5.6875-10.266t-1.8594-13.016zm42.828-6.125q0.125-7.5625-3.7812-12.422-3.8906-4.8594-10.734-4.8594-3.8438 0-6.7812 1.5t-4.9844 3.9062q-2.0312 2.3906-3.1719 5.5156t-1.5 6.3594h30.953zm50.767-26.516q1.4375 0 3.2969 0.1875 1.8594 0.17188 3.6562 0.46875 1.8125 0.29688 3.3125 0.60938 1.5 0.29688 2.2188 0.53125l-1.9219 9.7188q-1.3281-0.48438-4.3906-1.1406-3.0469-0.65625-7.8594-0.65625-3.1094 0-6.1719 0.65625t-4.0156 0.90625v52.438h-11.172v-59.766q3.9688-1.4375 9.8438-2.6875 5.875-1.2656 13.203-1.2656z" fill="#000"/>
</g>
</svg>
